<svg xmlns="http://www.w3.org/2000/svg" viewBox="5009.968 885 24.074 26.21">
  <defs>
    <style>
      .cls-1 {
        fill: #00dcff;
      }
    </style>
  </defs>
  <g id="stacked-green" transform="translate(5009.968 885)">
    <path id="Pfad_110" data-name="Pfad 110" class="cls-1" d="M2754.087,2860.956a3.657,3.657,0,0,0,3.856-3.856v-16.2a3.657,3.657,0,0,0-3.856-3.856h-16.361a3.657,3.657,0,0,0-3.856,3.856v22.354l1.975-2.294h0V2840.9a1.88,1.88,0,0,1,1.877-1.878h16.362a1.881,1.881,0,0,1,1.878,1.878v16.2a1.881,1.881,0,0,1-1.878,1.878h-13.726l-1.977,1.979-.012-.015" transform="translate(-2733.87 -2837.04)"/>
    <path id="Pfad_111" data-name="Pfad 111" class="cls-1" d="M2780.083,2920.27h-1.854v6.223h1.854C2784.225,2926.492,2784.225,2920.27,2780.083,2920.27Zm0,4.979h-.6v-3.734h.6a1.867,1.867,0,0,1,0,3.733Z" transform="translate(-2771.556 -2907.748)"/>
    <path id="Pfad_112" data-name="Pfad 112" class="cls-1" d="M45.53,40.324h1.244V35.345h1.548V34.11H43.98v1.235h1.55Z" transform="translate(-37.363 -28.978)"/>
    <path id="Pfad_113" data-name="Pfad 113" class="cls-1" d="M80.563,36.842,78.41,34.11h-.4v6.317h1.262V36.955l1.291,1.672,1.292-1.672-.009,3.472h1.262V34.11h-.393Z" transform="translate(-66.273 -28.978)"/>
    <path id="Pfad_114" data-name="Pfad 114" class="cls-1" d="M2822.155,2923.356a1.52,1.52,0,0,0,.575-1.228,1.71,1.71,0,0,0-1.766-1.888H2818.5v6.232h2.463a1.85,1.85,0,0,0,1.835-1.872A1.5,1.5,0,0,0,2822.155,2923.356Zm-2.407-1.872h1.106a.627.627,0,0,1,0,1.253h-1.106Zm1.106,3.742h-1.106v-1.244h1.106a.611.611,0,0,1,.626.618.618.618,0,0,1-.62.626Z" transform="translate(-2805.767 -2907.722)"/>
  </g>
</svg>
