<svg xmlns="http://www.w3.org/2000/svg" viewBox="0 0 222.33 66.7"><defs><style>.cls-1{fill:#054aae;}.cls-2{isolation:isolate;}.cls-3{fill:#fff;}</style></defs><title>130</title><g id="Ebene_2" data-name="Ebene 2"><g id="Ebene_1-2" data-name="Ebene 1"><g id="skyStore"><rect id="Rechteck_33" data-name="Rechteck 33" class="cls-1" width="222.33" height="66.7" rx="10" ry="10"/><g id="STORE" class="cls-2"><g class="cls-2"><path class="cls-3" d="M122.23,34.71a2.85,2.85,0,0,1-1.35,2.58,5.45,5.45,0,0,1-3,.71h-6q-.21,0-.21-.24V36.53a.8.8,0,0,1,.88-.92h5.56q1.25,0,1.25-.79t-1.25-1l-3.51-.8q-3.18-.72-3.18-3.16a3.05,3.05,0,0,1,1.19-2.56,4.39,4.39,0,0,1,2.77-.84h6.25c.15,0,.22.08.22.24V27.8a.91.91,0,0,1-1,1h-5.33q-1.12,0-1.12.79,0,.63,1.13,1l3.63.79Q122.23,32.1,122.23,34.71Z"/><path class="cls-3" d="M133.17,28a.77.77,0,0,1-.87.87h-2.84v8.22a.77.77,0,0,1-.87.88h-1.83c-.1,0-.15,0-.15-.12v-9h-3.67c-.08,0-.12,0-.12-.15V27.3a.76.76,0,0,1,.87-.84h9.38c.07,0,.1,0,.1.12Z"/><path class="cls-3" d="M145.14,32a6.74,6.74,0,0,1-1.28,4.5,6.84,6.84,0,0,1-8.71,0A6.76,6.76,0,0,1,133.88,32q0-5.7,5.64-5.7T145.14,32Zm-3,0a4.82,4.82,0,0,0-.45-2.44,2.43,2.43,0,0,0-2.22-.9,2.49,2.49,0,0,0-2.23.9,4.6,4.6,0,0,0-.48,2.44,5.9,5.9,0,0,0,.42,2.67,2.41,2.41,0,0,0,2.29,1,2.35,2.35,0,0,0,2.27-1A6.1,6.1,0,0,0,142.17,32Z"/><path class="cls-3" d="M157.7,37.91c0,.06-.08.09-.24.09H154.8q-.25,0-.52-.36l-2.93-3.82h-1.53v3.3a.78.78,0,0,1-.88.88h-1.83c-.11,0-.17,0-.17-.12V27.35a.78.78,0,0,1,.88-.88h5.09q4.54,0,4.54,3.67a3.29,3.29,0,0,1-2.91,3.54l3,4A.44.44,0,0,1,157.7,37.91Zm-3.3-7.48v-.65h0q0-1.11-2.1-1.11h-2.46v3h2.46a4.82,4.82,0,0,0,1.34-.12,1.13,1.13,0,0,0,.77-1v-.11Z"/><path class="cls-3" d="M167.69,28.16q0,.44-.13.52a1.21,1.21,0,0,1-.59.09h-5.34v2.28h4.78q.33,0,.33.32v1.77a.2.2,0,0,1-.23.23h-4.89v2.25H167q.47,0,.59.22a1.73,1.73,0,0,1,.08.66v1.21c0,.19-.06.29-.2.29h-8.14c-.18,0-.27-.09-.27-.29V27.35q0-.91.78-.92h7.68c.11,0,.17.08.17.23Z"/></g></g><path id="Sky_Deutschland_logo" data-name="Sky Deutschland logo" class="cls-3" d="M71.42,19a1.42,1.42,0,0,0-1.58,1.59V40.44a.59.59,0,0,0,.55.63h2.43a1.42,1.42,0,0,0,1.58-1.59V19.63a.59.59,0,0,0-.55-.63H71.42Zm-12,6.77c-3.52,0-5.37,2-5.37,4.64,0,2.31,1.42,3.72,4.26,4.35l4.54,1c.92.21,1.21.47,1.21.94s-.29.65-1.12.65h-7a1.41,1.41,0,0,0-1.58,1.57v1.47a.59.59,0,0,0,.51.66h7.83c4.17,0,5.85-2,5.85-4.46S67,32.72,64.2,32.08l-4.54-1c-.92-.21-1.21-.47-1.21-.94s.29-.65,1.12-.65h6.75a1.42,1.42,0,0,0,1.58-1.58V26.43a.59.59,0,0,0-.51-.66h-8Zm22.67,0a1.76,1.76,0,0,0-1.48.63l-5.89,6.32L80,40.42a1.15,1.15,0,0,0,1,.65h3.15c.47,0,.74-.19.74-.58a1.05,1.05,0,0,0-.27-.62L80,33l3.52-3.8,7,10.28L87.36,46a1.49,1.49,0,0,0-.18.56c0,.38.28.56.65.56h2.79a1,1,0,0,0,1-.65l9.07-19.55a1.4,1.4,0,0,0,.19-.56c0-.37-.27-.56-.65-.56H97.43a1,1,0,0,0-1,.66l-4,8.8-5.53-8.71a1.5,1.5,0,0,0-1.52-.75Z"/></g></g></g></svg>