<svg xmlns="http://www.w3.org/2000/svg" viewBox="5415 -4002 222.329 66.698">
  <defs>
    <style>
      .cls-1 {
        fill: #fff;
      }
    </style>
  </defs>
  <g id="iTunes" transform="translate(4085 -4699)">
    <rect id="Rechteck_25" data-name="Rechteck 25" class="cls-1" width="222.328" height="66.699" rx="10" transform="translate(1330 697)"/>
    <g id="apple-itunes" transform="translate(-5678.874 -6459.951)">
      <path id="Pfad_41" data-name="Pfad 41" d="M7135.754,7203.555a26.139,26.139,0,0,1-2.375,4.434c-1.542,2.35-3.716,5.272-6.411,5.3-2.4.021-3.011-1.558-6.26-1.541s-3.926,1.567-6.32,1.546c-2.694-.024-4.755-2.665-6.3-5.012-4.313-6.566-4.765-14.271-2.1-18.367a9.548,9.548,0,0,1,7.679-4.613c2.856,0,4.651,1.565,7.011,1.565,2.291,0,3.685-1.567,6.987-1.567a9.332,9.332,0,0,1,7.024,3.705,8.034,8.034,0,0,0,1.068,14.552Z" transform="translate(0 -4.398)"/>
      <path id="Pfad_42" data-name="Pfad 42" d="M7132.911,7178.272a8.008,8.008,0,0,0,1.78-5.935,8.659,8.659,0,0,0-5.59,3.007,7.441,7.441,0,0,0-1.828,5.789A7.314,7.314,0,0,0,7132.911,7178.272Z" transform="translate(-7.755)"/>
    </g>
  </g>
</svg>
