<svg xmlns="http://www.w3.org/2000/svg" xmlns:xlink="http://www.w3.org/1999/xlink" viewBox="5415 -3883 222.329 66.698">
  <defs>
    <style>
      .cls-1 {
        fill: #fff;
      }

      .cls-2 {
        fill: url(#linear-gradient);
      }

      .cls-3 {
        fill: url(#linear-gradient-2);
      }

      .cls-4 {
        fill: url(#linear-gradient-3);
      }

      .cls-5 {
        fill: url(#linear-gradient-4);
      }

      .cls-6 {
        fill: #444;
      }
    </style>
    <linearGradient id="linear-gradient" x1="1.216" y1="1" x2="0.63" y2="-0.487" gradientUnits="objectBoundingBox">
      <stop offset="0" stop-color="#fcd08f"/>
      <stop offset="1" stop-color="#f79673"/>
    </linearGradient>
    <linearGradient id="linear-gradient-2" x1="0.841" x2="-0.188" y2="1.349" gradientUnits="objectBoundingBox">
      <stop offset="0" stop-color="#e74047"/>
      <stop offset="1" stop-color="#7f50a0"/>
    </linearGradient>
    <linearGradient id="linear-gradient-3" x1="1.526" y1="1" x2="-0.34" y2="-1.054" gradientUnits="objectBoundingBox">
      <stop offset="0" stop-color="#e6ffab"/>
      <stop offset="1" stop-color="#47bebc"/>
    </linearGradient>
    <linearGradient id="linear-gradient-4" y1="1" x2="0.553" y2="-0.024" gradientUnits="objectBoundingBox">
      <stop offset="0" stop-color="#84e9db"/>
      <stop offset="1" stop-color="#197491"/>
    </linearGradient>
  </defs>
  <g id="googlePlay" transform="translate(4085 -4677)">
    <rect id="Rechteck_26" data-name="Rechteck 26" class="cls-1" width="222.328" height="66.699" rx="10" transform="translate(1330 794)"/>
    <g id="Google_Play_2015" transform="translate(1375.979 813.493)">
      <path id="path16" class="cls-2" d="M73.494,53.01c3.345-1.836,5.9-3.235,6.121-3.345.7-.372,1.421-1.355,0-2.121-.459-.24-2.929-1.6-6.121-3.345L69.1,48.616Z" transform="translate(-53.994 -34.546)"/>
      <path id="path23" class="cls-3" d="M18.935,64.4,4.9,78.544a1.861,1.861,0,0,0,1.137-.284c.918-.5,10.668-5.837,17.292-9.466L18.935,64.4Z" transform="translate(-3.829 -50.33)"/>
      <path id="path30" class="cls-4" d="M18.857,14.07l4.394-4.416S6.942.757,5.959.232A1.71,1.71,0,0,0,4.8.013Z" transform="translate(-3.751 0)"/>
      <path id="path37" class="cls-5" d="M15.106,14.157,1.049.1C.481.231,0,.734,0,1.761V26.64c0,.94.372,1.618,1.071,1.683Z" transform="translate(0 -0.087)"/>
      <path id="path46" class="cls-6" d="M174.119,33.316a4.613,4.613,0,1,0,4.591,4.613A4.54,4.54,0,0,0,174.119,33.316Zm0,7.411a2.808,2.808,0,1,1,2.58-2.8A2.667,2.667,0,0,1,174.119,40.727Zm-10.012-7.411a4.613,4.613,0,1,0,4.591,4.613A4.527,4.527,0,0,0,164.107,33.316Zm0,7.411a2.808,2.808,0,1,1,2.58-2.8A2.667,2.667,0,0,1,164.107,40.727Zm-11.893-5.99v1.946h4.635a4.039,4.039,0,0,1-1.049,2.448,4.739,4.739,0,0,1-3.585,1.421,5.2,5.2,0,0,1,0-10.406,4.9,4.9,0,0,1,3.5,1.4l1.377-1.377a6.764,6.764,0,0,0-4.875-1.968,7.149,7.149,0,1,0,0,14.3,6.321,6.321,0,0,0,6.646-6.58,6.7,6.7,0,0,0-.109-1.224ZM200.9,36.245a4.258,4.258,0,0,0-3.913-2.929,4.352,4.352,0,0,0-4.307,4.613,4.543,4.543,0,0,0,8.329,2.58l-1.552-1.049a2.608,2.608,0,0,1-2.252,1.268,2.28,2.28,0,0,1-2.208-1.4l6.121-2.558Zm-6.23,1.552a2.536,2.536,0,0,1,2.383-2.689,1.766,1.766,0,0,1,1.705.984Zm-4.963,4.46h2.011V28.725h-2.011Zm-3.3-7.914h-.066a3.143,3.143,0,0,0-2.4-1.027,4.608,4.608,0,0,0,0,9.2,3.08,3.08,0,0,0,2.4-1.049h.066v.656c0,1.771-.94,2.711-2.448,2.711a2.53,2.53,0,0,1-2.3-1.64l-1.749.743a4.36,4.36,0,0,0,4.044,2.733c2.361,0,4.35-1.4,4.35-4.788V33.6h-1.9Zm-2.3,6.384a2.8,2.8,0,0,1,0-5.575,2.594,2.594,0,0,1,2.448,2.8A2.587,2.587,0,0,1,184.11,40.727Zm26.19-12H205.49V42.257H207.5V37.119h2.8a4.2,4.2,0,1,0,0-8.395Zm.066,6.515H207.5V30.6h2.864a2.352,2.352,0,0,1,2.361,2.317A2.381,2.381,0,0,1,210.365,35.239Zm12.4-1.946a3.718,3.718,0,0,0-3.563,2.077l1.771.743a1.917,1.917,0,0,1,1.836-.984,1.947,1.947,0,0,1,2.121,1.749v.131a4.32,4.32,0,0,0-2.1-.525c-1.924,0-3.869,1.071-3.869,3.039A3.1,3.1,0,0,0,222.28,42.5a2.8,2.8,0,0,0,2.558-1.334h.066v1.049h1.946V37.032C226.827,34.649,225.056,33.294,222.761,33.294Zm-.24,7.411c-.656,0-1.574-.328-1.574-1.137,0-1.049,1.137-1.443,2.121-1.443a3.6,3.6,0,0,1,1.836.459A2.42,2.42,0,0,1,222.52,40.7Zm11.368-7.1-2.3,5.859h-.066L229.144,33.6H226.98l3.585,8.2-2.033,4.569h2.1L236.14,33.6Zm-18.057,8.657h2.011V28.725h-2.011Z" transform="translate(-106.198 -22.044)"/>
    </g>
  </g>
</svg>
