<svg xmlns="http://www.w3.org/2000/svg" viewBox="5415 -4121 222.329 66.698">
  <defs>
    <style>
      .cls-1 {
        fill: #00a4ef;
      }

      .cls-2 {
        fill: #fff;
      }
    </style>
  </defs>
  <g id="microsoft" transform="translate(4085 -4721)">
    <g id="Gruppe_22" data-name="Gruppe 22">
      <rect id="Rechteck_24" data-name="Rechteck 24" class="cls-1" width="222.328" height="66.699" rx="10" transform="translate(1330 600)"/>
      <g id="Microsoft_logo__2012_" data-name="Microsoft_logo_(2012)" transform="translate(1364.46 617.161)">
        <g id="Gruppe_21" data-name="Gruppe 21" transform="translate(42.457 5.092)">
          <path id="Pfad_35" data-name="Pfad 35" class="cls-2" d="M179.151,36.891l-.912,2.584h-.076a18.344,18.344,0,0,0-.887-2.533l-4.889-12.286H167.6V44.238h3.167V32.154c0-.76,0-1.621-.025-2.685-.025-.532-.076-.937-.1-1.241h.076a11.833,11.833,0,0,0,.456,1.672l5.877,14.287h2.229L185.1,29.773a15.341,15.341,0,0,0,.38-1.545h.076c-.076,1.444-.127,2.736-.152,3.521V44.162h3.369V24.605h-4.61Zm12.818-6.764h3.293V44.162h-3.293Zm1.672-5.928a1.973,1.973,0,0,0-1.393.557,1.867,1.867,0,0,0,0,2.711,1.952,1.952,0,0,0,1.393.532,2.02,2.02,0,0,0,1.393-.532,1.782,1.782,0,0,0,.583-1.343,1.878,1.878,0,0,0-.583-1.368,1.848,1.848,0,0,0-1.393-.557m13.3,5.8a9.186,9.186,0,0,0-1.849-.2,7.947,7.947,0,0,0-4,.988,6.616,6.616,0,0,0-2.635,2.711,8.615,8.615,0,0,0-.912,4.053,7.518,7.518,0,0,0,.887,3.622,6.072,6.072,0,0,0,2.483,2.508,7.308,7.308,0,0,0,3.622.887,7.962,7.962,0,0,0,3.977-.937l.025-.025v-3.04l-.127.1a5.661,5.661,0,0,1-1.6.836,4.882,4.882,0,0,1-1.571.3,3.885,3.885,0,0,1-3.091-1.216,4.672,4.672,0,0,1-1.14-3.319,4.789,4.789,0,0,1,1.165-3.42,4.066,4.066,0,0,1,3.091-1.267,5.391,5.391,0,0,1,3.141,1.064l.127.1V30.533l-.025-.025A7.638,7.638,0,0,0,206.941,30m10.867-.1a3.475,3.475,0,0,0-2.229.785,4.726,4.726,0,0,0-1.267,1.9h-.025V30.128h-3.293V44.162h3.293V36.993a4.833,4.833,0,0,1,.811-2.964,2.539,2.539,0,0,1,2.128-1.14,8.123,8.123,0,0,1,.988.127,2.6,2.6,0,0,1,.785.329l.127.1V30.153l-.076-.025a2.5,2.5,0,0,0-1.241-.228m8.968-.076a7.262,7.262,0,0,0-5.446,2.027,7.545,7.545,0,0,0-1.951,5.522,7.221,7.221,0,0,0,1.925,5.244,7.91,7.91,0,0,0,10.487-.127,7.52,7.52,0,0,0,1.951-5.446,7.33,7.33,0,0,0-1.849-5.294,6.667,6.667,0,0,0-5.117-1.925m2.635,10.791a3.32,3.32,0,0,1-2.761,1.165,3.46,3.46,0,0,1-2.837-1.216A5,5,0,0,1,222.8,37.2a5.319,5.319,0,0,1,1.013-3.445,3.484,3.484,0,0,1,2.812-1.216A3.368,3.368,0,0,1,229.36,33.7a5.2,5.2,0,0,1,1.013,3.42,5.861,5.861,0,0,1-.963,3.5m11.678-4.661a7.89,7.89,0,0,1-2-1.039,1.438,1.438,0,0,1-.38-1.064,1.177,1.177,0,0,1,.532-1.013,2.441,2.441,0,0,1,1.444-.38,6.558,6.558,0,0,1,1.7.253,4.368,4.368,0,0,1,1.469.684l.127.1V30.406l-.076-.025a9.141,9.141,0,0,0-1.495-.431,10.155,10.155,0,0,0-1.621-.152,5.869,5.869,0,0,0-3.876,1.216,3.745,3.745,0,0,0-1.495,3.091,4.022,4.022,0,0,0,.329,1.723,3.84,3.84,0,0,0,1.013,1.317,8.827,8.827,0,0,0,2.027,1.14c.76.329,1.343.583,1.7.785a3.438,3.438,0,0,1,.76.608,1.44,1.44,0,0,1,.2.785c0,.937-.709,1.393-2.153,1.393a5.685,5.685,0,0,1-1.824-.329,7.047,7.047,0,0,1-1.849-.937l-.127-.1v3.217l.076.025a9.826,9.826,0,0,0,1.773.557,11.31,11.31,0,0,0,1.9.228,6.169,6.169,0,0,0,4.078-1.216,3.879,3.879,0,0,0,1.545-3.192,3.552,3.552,0,0,0-.811-2.407,10.271,10.271,0,0,0-2.964-1.748m12.463-6.13a7.262,7.262,0,0,0-5.446,2.027,7.652,7.652,0,0,0-1.951,5.522,7.221,7.221,0,0,0,1.925,5.244,7.91,7.91,0,0,0,10.487-.127,7.52,7.52,0,0,0,1.951-5.446,7.33,7.33,0,0,0-1.849-5.294,6.667,6.667,0,0,0-5.117-1.925m2.609,10.791A3.32,3.32,0,0,1,253.4,41.78a3.427,3.427,0,0,1-2.837-1.216,5,5,0,0,1-1.013-3.369,5.319,5.319,0,0,1,1.013-3.445,3.484,3.484,0,0,1,2.812-1.216A3.4,3.4,0,0,1,256.11,33.7a5.2,5.2,0,0,1,1.013,3.42,5.527,5.527,0,0,1-.963,3.5" transform="translate(-167.6 -23.161)"/>
          <path id="Pfad_36" data-name="Pfad 36" class="cls-2" d="M553.126,29.777V27.066h-3.319V22.912l-.1.025-3.141.937-.076.025v3.167h-4.965V25.293a2.778,2.778,0,0,1,.557-1.849,1.967,1.967,0,0,1,1.545-.608,3.7,3.7,0,0,1,1.469.329l.127.076V20.379l-.076-.025a6.334,6.334,0,0,0-4.484.355,4.393,4.393,0,0,0-1.8,1.8,5.184,5.184,0,0,0-.659,2.609v1.951H535.9v2.685h2.305V41.1h3.318V29.777h4.965V37c0,2.964,1.393,4.458,4.18,4.458a8.681,8.681,0,0,0,1.393-.152,4.559,4.559,0,0,0,1.039-.329l.025-.025V38.238l-.127.1a2.14,2.14,0,0,1-.684.3,2.319,2.319,0,0,1-.659.1,1.755,1.755,0,0,1-1.444-.532,2.743,2.743,0,0,1-.456-1.8V29.777h3.369Z" transform="translate(-442.602 -20.1)"/>
        </g>
        <path id="Pfad_37" data-name="Pfad 37" class="cls-2" d="M0,0H15.529V15.529H0Z"/>
        <path id="Pfad_38" data-name="Pfad 38" class="cls-2" d="M67.7,0H83.229V15.529H67.7Z" transform="translate(-50.55)"/>
        <path id="Pfad_39" data-name="Pfad 39" class="cls-2" d="M0,67.7H15.529V83.229H0Z" transform="translate(0 -50.55)"/>
        <path id="Pfad_40" data-name="Pfad 40" class="cls-2" d="M67.7,67.7H83.229V83.229H67.7Z" transform="translate(-50.55 -50.55)"/>
      </g>
    </g>
  </g>
</svg>
