<svg xmlns="http://www.w3.org/2000/svg" viewBox="5732 -4002 222.329 66.698">
  <defs>
    <style>
      .cls-1 {
        fill: #d81f26;
      }

      .cls-2 {
        fill: #fff;
      }
    </style>
  </defs>
  <g id="netflix" transform="translate(4953 -4367)">
    <rect id="Rechteck_25" data-name="Rechteck 25" class="cls-1" width="222.328" height="66.699" rx="10" transform="translate(779 365)"/>
    <path id="Netflix_2015_logo" class="cls-2" d="M15.24,28.023c-1.667.293-3.364.381-5.119.614L4.768,12.958V29.31c-1.667.175-3.188.409-4.768.643V0H4.446L10.53,17V0H15.24V28.023Zm9.214-17.053c1.814,0,4.593-.088,6.26-.088v4.68c-2.077,0-4.5,0-6.26.088v6.962c2.75-.175,5.5-.41,8.278-.5v4.5L19.774,27.642V0H32.732V4.68H24.454v6.289ZM50.137,4.68H45.281V26.209c-1.58,0-3.159,0-4.68.058V4.68H35.745V0H50.137V4.68Zm7.605,5.967h6.406v4.68H57.742V25.946H53.149V0H66.225V4.68H57.742v5.967Zm16.088,11.2c2.662.058,5.353.263,7.956.409v4.622c-4.183-.263-8.366-.526-12.637-.614V0h4.68V21.851ZM85.736,27.2c1.492.088,3.071.176,4.592.351V0H85.736ZM110.833,0,104.9,14.245l5.938,15.708c-1.755-.234-3.51-.556-5.265-.848L102.2,20.447,98.782,28.4c-1.7-.293-3.335-.381-5.031-.615L99.777,14.07,94.336,0h5.031l3.071,7.869L105.714,0h5.119Z" transform="translate(834.398 383.351)"/>
  </g>
</svg>
