<svg xmlns="http://www.w3.org/2000/svg" viewBox="5098 -4002 222.329 66.698">
  <defs>
    <style>
      .cls-1, .cls-4 {
        fill: #fff;
      }

      .cls-2, .cls-4 {
        fill-rule: evenodd;
      }

      .cls-3 {
        fill: #7dae2a;
      }
    </style>
  </defs>
  <g id="amazonInstant" transform="translate(3768 -4311)">
    <rect id="Rechteck_20" data-name="Rechteck 20" class="cls-1" width="222.328" height="66.699" rx="10" transform="translate(1330 309)"/>
    <g id="Amazon_Instant_Video" transform="translate(1375.312 325)">
      <g id="g1967" transform="translate(0 0)">
        <path id="path8" class="cls-2" d="M-116.122,1945.356c-5.861,4.493-14.356,6.891-21.67,6.891a38.374,38.374,0,0,1-26.473-10.508c-.549-.516-.057-1.219.6-.817a51.707,51.707,0,0,0,26.486,7.306,50.918,50.918,0,0,0,20.2-4.3c.992-.438,1.822.676.852,1.425" transform="translate(178.691 -1918.066)"/>
        <path id="path10" class="cls-2" d="M481.6,1927.447c-.746-1-4.952-.47-6.84-.237-.575.073-.663-.447-.145-.822,3.35-2.453,8.846-1.745,9.487-.923s-.167,6.558-3.315,9.293c-.483.42-.944.2-.729-.361.707-1.836,2.292-5.95,1.541-6.951" transform="translate(-416.593 -1903.056)"/>
        <path id="path12" class="cls-2" d="M475.367,1654.37v-2.384a.577.577,0,0,1,.579-.6h10.26a.582.582,0,0,1,.593.6v2.041a3.41,3.41,0,0,1-.773,1.5l-5.317,7.9a10.965,10.965,0,0,1,5.852,1.306,1.093,1.093,0,0,1,.544.927v2.544c0,.347-.369.753-.755.543a11.415,11.415,0,0,0-10.84.018c-.356.2-.729-.2-.729-.548V1665.8a2.977,2.977,0,0,1,.378-1.64l6.16-9.188h-5.361a.578.578,0,0,1-.593-.6" transform="translate(-417.068 -1648.351)"/>
        <path id="path14" class="cls-2" d="M-116.722,1665.055h-3.121a.6.6,0,0,1-.558-.552v-16.663a.6.6,0,0,1,.6-.6h2.911a.6.6,0,0,1,.566.557v2.178h.057a4.136,4.136,0,0,1,4.109-3.087c1.954,0,3.174.982,4.052,3.087a4.432,4.432,0,0,1,4.311-3.087,4.375,4.375,0,0,1,3.613,1.822c.988,1.4.786,3.439.786,5.224l0,10.517a.6.6,0,0,1-.6.6h-3.117a.606.606,0,0,1-.562-.6v-8.832a21.69,21.69,0,0,0-.088-3.124,1.636,1.636,0,0,0-1.835-1.434,2.078,2.078,0,0,0-1.866,1.365,10.477,10.477,0,0,0-.29,3.192v8.832a.6.6,0,0,1-.6.6h-3.117a.6.6,0,0,1-.562-.6l0-8.832c0-1.859.294-4.594-1.923-4.594-2.243,0-2.156,2.667-2.156,4.594v8.832a.6.6,0,0,1-.6.6" transform="translate(137.593 -1644.163)"/>
        <path id="path18" class="cls-2" d="M1013.184,1665.055h-3.108a.607.607,0,0,1-.562-.6l0-16.668a.6.6,0,0,1,.6-.543H1013a.6.6,0,0,1,.558.466v2.548h.057c.874-2.279,2.1-3.366,4.254-3.366a4.05,4.05,0,0,1,3.644,1.964c.817,1.333.817,3.576.817,5.188v10.49a.607.607,0,0,1-.6.525h-3.13a.6.6,0,0,1-.553-.525v-9.051c0-1.822.2-4.489-1.954-4.489a2.045,2.045,0,0,0-1.8,1.334,7.64,7.64,0,0,0-.5,3.155v8.974a.611.611,0,0,1-.61.6" transform="translate(-915.389 -1644.163)"/>
        <path id="path28" class="cls-2" d="M237.33,1654.907a6.575,6.575,0,0,1-.584,3.443,2.532,2.532,0,0,1-2.16,1.475c-1.2,0-1.9-.95-1.9-2.352,0-2.767,2.384-3.27,4.645-3.27v.7m3.148,7.914a.631.631,0,0,1-.738.078,7.839,7.839,0,0,1-1.791-2.164,6.078,6.078,0,0,1-5.145,2.361c-2.63,0-4.671-1.685-4.671-5.06a5.518,5.518,0,0,1,3.328-5.306,20.883,20.883,0,0,1,5.87-1.128v-.42a4.288,4.288,0,0,0-.382-2.352,2.047,2.047,0,0,0-1.752-.845,2.39,2.39,0,0,0-2.507,1.95.668.668,0,0,1-.544.594l-3.025-.338a.569.569,0,0,1-.465-.681c.694-3.818,4.013-4.968,6.98-4.968a6.9,6.9,0,0,1,4.7,1.617c1.519,1.475,1.374,3.443,1.374,5.585v5.06a4.531,4.531,0,0,0,1.177,3.009.632.632,0,0,1-.013.863c-.637.552-1.769,1.58-2.393,2.155l0-.009" transform="translate(-187.211 -1641.975)"/>
        <path id="path30" class="cls-2" d="M-363.722,1654.907a6.575,6.575,0,0,1-.584,3.443,2.527,2.527,0,0,1-2.16,1.475c-1.2,0-1.9-.95-1.9-2.352,0-2.767,2.384-3.27,4.641-3.27v.7m3.148,7.914a.631.631,0,0,1-.738.078,7.919,7.919,0,0,1-1.791-2.164,6.072,6.072,0,0,1-5.145,2.361c-2.625,0-4.671-1.685-4.671-5.06a5.524,5.524,0,0,1,3.328-5.306,20.883,20.883,0,0,1,5.87-1.128v-.42a4.326,4.326,0,0,0-.378-2.352,2.058,2.058,0,0,0-1.752-.845,2.4,2.4,0,0,0-2.511,1.95.668.668,0,0,1-.54.594l-3.029-.338a.572.572,0,0,1-.465-.681c.7-3.818,4.013-4.968,6.981-4.968a6.9,6.9,0,0,1,4.7,1.617c1.519,1.475,1.374,3.443,1.374,5.585v5.06a4.531,4.531,0,0,0,1.177,3.009.628.628,0,0,1-.009.863c-.637.552-1.769,1.58-2.393,2.155l-.009-.009" transform="translate(372.919 -1641.975)"/>
        <ellipse id="path6903" class="cls-3" cx="11.328" cy="11.3" rx="11.328" ry="11.3" transform="translate(70.091)"/>
        <path id="path7472" class="cls-4" d="M772.206,1710.913v-9.232l9.346,4.644Z" transform="translate(-694.242 -1695.224)"/>
        <path id="text3364" d="M988.384,369.933v3.224l-.022.086a1.927,1.927,0,0,0-1.71-1.1c-1.523,0-2.389,1.4-2.389,3.212,0,1.538.57,3.593,2.521,3.593a1.7,1.7,0,0,0,1.633-1.071h.022v.886h.91v-8.835Zm-45.957.23a.621.621,0,1,0,.641.621A.631.631,0,0,0,942.427,370.164Zm40.291,0a.621.621,0,1,0,.641.621A.631.631,0,0,0,982.718,370.164ZM956,370.536v1.8h-.778v.9H956v4.245c0,.775.208,1.378,1.162,1.378.1,0,.373-.049.723-.086v-.849h-.34c-.2,0-.581,0-.581-.5v-4.184h.921v-.9h-.921v-1.8H956Zm15.058,0v1.8h-.778v.9h.778v4.245c0,.775.208,1.378,1.162,1.378.1,0,.373-.049.723-.086v-.849h-.34c-.2,0-.581,0-.581-.5v-4.184h.921v-.9h-.921v-1.8h-.964Zm-24.072,1.612a2.06,2.06,0,0,0-1.732,1.1h-.022v-.911h-.91v6.436h.964v-3.507c0-1.747.965-2.141,1.513-2.141.943,0,1.228.566,1.228,1.686v3.962h.964v-4.381C948.99,372.554,947.872,372.148,946.984,372.148Zm5.371,0a1.987,1.987,0,0,0-2.17,2.055,1.541,1.541,0,0,0,1.326,1.563l1.118.308c.822.234,1.14.406,1.14.923,0,.714-.625,1.021-1.315,1.021-1.359,0-1.491-.812-1.524-1.317H950c.033.775.2,2.252,2.466,2.252a2.088,2.088,0,0,0,2.269-2.129c0-.874-.416-1.366-1.611-1.7l-.965-.271c-.745-.209-1.041-.332-1.041-.861,0-.8.844-.911,1.14-.911,1.217,0,1.348.677,1.359,1.083h.932A1.994,1.994,0,0,0,952.355,372.148Zm8.737,0c-1.414,0-2.324.6-2.367,2.141h.888a1.2,1.2,0,0,1,1.315-1.243c.91,0,1.348.369,1.348,1.046,0,.64-.274.738-.5.763l-1.589.222a1.874,1.874,0,0,0-1.743,2.018,1.746,1.746,0,0,0,1.8,1.858,2.51,2.51,0,0,0,2.071-1.046c.033.492.164.984,1.019.984a1.617,1.617,0,0,0,.526-.123v-.788a1.644,1.644,0,0,1-.318.049c-.2,0-.318-.111-.318-.381v-3.7C963.219,372.3,961.553,372.148,961.092,372.148Zm6.368,0a2.06,2.06,0,0,0-1.732,1.1h-.022v-.911h-.91v6.436h.964v-3.507c0-1.747.965-2.141,1.513-2.141.943,0,1.228.566,1.228,1.686v3.962h.964v-4.381C969.466,372.554,968.348,372.148,967.461,372.148Zm25.647,0c-1.9,0-2.751,1.587-2.751,3.581,0,1.858.954,3.224,2.565,3.224a2.273,2.273,0,0,0,1.556-.443,2.85,2.85,0,0,0,1.019-1.76h-.964a1.509,1.509,0,0,1-1.48,1.267c-1.107,0-1.666-.775-1.666-2.116h4.187C995.574,373.625,994.763,372.148,993.108,372.148Zm5.9,0c-1.83,0-2.663,1.735-2.663,3.4s.833,3.4,2.663,3.4,2.663-1.735,2.663-3.4S1000.835,372.148,999,372.148Zm-57.041.185v6.436h.964v-6.436Zm34.2,0,2.093,6.436h1.03l2.181-6.436h-1.052l-1.622,5.242h-.022l-1.491-5.242Zm6.065,0v6.436h.965v-6.436Zm16.771.751c1.381,0,1.666,1.6,1.666,2.461s-.285,2.461-1.666,2.461-1.666-1.6-1.666-2.461S997.624,373.083,999,373.083Zm-12.178.037c1.392,0,1.545,1.686,1.545,2.732,0,1.71-.954,2.166-1.567,2.166-1.052,0-1.545-1.071-1.545-2.486,0-.824.077-2.412,1.567-2.412Zm6.149,0c1.173,0,1.546.923,1.6,1.92h-3.19A1.812,1.812,0,0,1,992.976,373.12Zm-30.722,2.363v1.058a1.7,1.7,0,0,1-1.776,1.513c-.723,0-1.041-.418-1.041-1.12,0-.812.756-.972,1.228-1.046C961.859,375.717,962.1,375.618,962.254,375.483Z" transform="translate(-870.445 -345.834)"/>
      </g>
    </g>
  </g>
</svg>
