<svg xmlns="http://www.w3.org/2000/svg" viewBox="6049 -4121 222.329 66.698">
  <defs>
    <style>
      .cls-1 {
        fill: #054aae;
      }

      .cls-2, .cls-3 {
        fill: #fff;
      }

      .cls-2 {
        font-size: 15px;
        font-family: SKYfontThick;
      }
    </style>
  </defs>
  <g id="skyStore" transform="translate(4953 -4367)">
    <rect id="Rechteck_33" data-name="Rechteck 33" class="cls-1" width="222.328" height="66.699" rx="10" transform="translate(1096 246)"/>
    <text id="STORE" class="cls-2" transform="translate(1207 284)"><tspan x="0" y="0">STORE</tspan></text>
    <path id="Sky_Deutschland_logo" class="cls-3" d="M17.421,0a1.421,1.421,0,0,0-1.577,1.585V21.444a.592.592,0,0,0,.663.63h2.312A1.422,1.422,0,0,0,20.4,20.485V.63A.592.592,0,0,0,19.734,0ZM5.371,6.77C1.849,6.77,0,8.811,0,11.412c0,2.312,1.423,3.72,4.265,4.353L8.8,16.78c.922.208,1.209.467,1.209.937,0,.361-.287.649-1.119.649H1.857A1.415,1.415,0,0,0,.276,19.94v1.47a.59.59,0,0,0,.624.664H8.617c4.168,0,5.851-2.044,5.851-4.458,0-2.5-1.443-3.9-4.267-4.537L5.663,12.061c-.922-.206-1.208-.466-1.208-.937,0-.359.286-.647,1.119-.647h6.751A1.418,1.418,0,0,0,13.906,8.9V7.435a.59.59,0,0,0-.625-.664Zm22.675,0a1.76,1.76,0,0,0-1.481.63l-5.889,6.323,5.283,7.7a1.15,1.15,0,0,0,1.022.652h3.147c.471,0,.744-.188.744-.585a1.053,1.053,0,0,0-.274-.624L25.958,14,29.481,10.2l6.953,10.281-3.074,6.5a1.486,1.486,0,0,0-.183.56c0,.375.275.557.651.557h2.789a.959.959,0,0,0,1.024-.653L46.708,7.891a1.4,1.4,0,0,0,.185-.561c0-.375-.273-.56-.649-.56H43.433a.958.958,0,0,0-1.023.656l-3.966,8.8L32.912,7.517A1.5,1.5,0,0,0,31.39,6.77Z" transform="translate(1150 265)"/>
  </g>
</svg>
