<svg xmlns="http://www.w3.org/2000/svg" viewBox="5415 -3764 222.329 66.698">
  <defs>
    <style>
      .cls-1 {
        fill: #01328a;
      }

      .cls-2 {
        fill: #fff;
        fill-rule: evenodd;
      }
    </style>
  </defs>
  <g id="playstation" transform="translate(3798 -4301)">
    <rect id="Rechteck_27" data-name="Rechteck 27" class="cls-1" width="222.328" height="66.699" rx="10" transform="translate(1617 537)"/>
    <path id="PlayStation_logo" class="cls-2" d="M55.985,33.772a10.384,10.384,0,0,1-3.739,2.343L32.495,43.209V37.977L47.03,32.8c1.649-.591,1.9-1.426.562-1.865a9.8,9.8,0,0,0-5.412.28l-9.685,3.411v-5.43l.558-.189a33.226,33.226,0,0,1,6.734-1.426,28.728,28.728,0,0,1,12.537,1.493c4.263,1.347,4.743,3.333,3.661,4.7Zm-21.61-8.909V11.483c0-1.571-.29-3.018-1.764-3.428-1.129-.362-1.83.687-1.83,2.257V43.819l-9.036-2.868V1A108.653,108.653,0,0,1,34.194,4.414c7.653,2.627,10.247,5.9,10.247,13.265,0,7.181-4.433,9.9-10.066,7.184ZM5.164,37.431c-4.376-1.233-5.1-3.8-3.11-5.28a21.44,21.44,0,0,1,4.979-2.394L19.99,25.149V30.4l-9.324,3.337c-1.647.591-1.9,1.428-.562,1.866a9.831,9.831,0,0,0,5.413-.278L19.99,33.7v4.7c-.284.05-.6.1-.892.15A29.315,29.315,0,0,1,5.164,37.43Zm47.943,2.08a2.117,2.117,0,1,1-2.114,2.118A2.119,2.119,0,0,1,53.107,39.511Zm-1.759,2.118a1.762,1.762,0,0,0,1.759,1.759,1.76,1.76,0,0,0,1.759-1.759,1.759,1.759,0,1,0-3.518,0Zm2.4-1.14a.578.578,0,0,1,.349.578.647.647,0,0,1-.092.359.624.624,0,0,1-.178.171.519.519,0,0,1,.141.117.539.539,0,0,1,.083.313l.011.3a.773.773,0,0,0,.021.18.132.132,0,0,0,.067.1l.032.015v.137h-.456l-.015-.026a.414.414,0,0,1-.03-.092,1.43,1.43,0,0,1-.016-.184l-.019-.374a.267.267,0,0,0-.132-.253.655.655,0,0,0-.253-.035h-.641v.965h-.41V40.408H53.3a1.059,1.059,0,0,1,.445.081Zm-1.129.949h.653a.562.562,0,0,0,.31-.073.31.31,0,0,0,.1-.268.282.282,0,0,0-.145-.282.522.522,0,0,0-.226-.042h-.693v.665Z" transform="translate(1699 548)"/>
  </g>
</svg>
