<svg xmlns="http://www.w3.org/2000/svg" viewBox="5098 -3764 222.329 66.698">
  <defs>
    <style>
      .cls-1 {
        fill: #ed9205;
      }

      .cls-2 {
        fill: #1c2932;
      }
    </style>
  </defs>
  <g id="maxdomeStore" transform="translate(3768 -4267)">
    <rect id="Rechteck_23" data-name="Rechteck 23" class="cls-1" width="222.328" height="66.699" rx="10" transform="translate(1330 503)"/>
    <g id="Maxdome_2014" transform="translate(1366.157 523)">
      <g id="g3" transform="translate(0 1)">
        <path id="path5" class="cls-2" d="M507.267,69.618a4.5,4.5,0,1,1,4.5-4.519v.041a4.5,4.5,0,0,1-4.5,4.478m4.5-11.935a9.061,9.061,0,0,0-4.611-1.237,8.675,8.675,0,1,0,8.855,8.83h.01V49.039h-4.255v8.645Z" transform="translate(-432.458 -49.039)"/>
        <path id="polygon7" class="cls-2" d="M390.2,117.093h5.291l-6.381-8.894,5.594-7.761H389.58l-3.3,4.736-3.3-4.736H377.86l5.609,7.761-6.4,8.894h5.3l3.907-5.623Z" transform="translate(-329.534 -92.679)"/>
        <path id="path9" class="cls-2" d="M640.78,111.282a4.5,4.5,0,1,1,4.5-4.5,4.5,4.5,0,0,1-4.5,4.5m-.112-13.172a8.675,8.675,0,1,0,8.863,8.686,8.684,8.684,0,0,0-8.863-8.686" transform="translate(-545.815 -90.702)"/>
        <path id="path11" class="cls-2" d="M257.979,111.144a4.5,4.5,0,1,1,4.5-4.5,4.5,4.5,0,0,1-4.5,4.5m-.117-13.172a8.678,8.678,0,1,0,0,17.352,9.051,9.051,0,0,0,4.634-1.254v.95h4.237v-8.527h-.012a8.646,8.646,0,0,0-8.858-8.522" transform="translate(-220.797 -90.585)"/>
        <path id="path13" class="cls-2" d="M80.6,98.11l-.089,0-.089,0a7.694,7.694,0,0,0-5.29,2.084,7.688,7.688,0,0,0-5.291-2.084l-.09,0-.087,0a7.568,7.568,0,0,0-5.837,2.688,8.282,8.282,0,0,0-1.677,5.494v8.825h4.456v-9a3.9,3.9,0,0,1,.822-2.852,3.148,3.148,0,0,1,4.643,0,3.9,3.9,0,0,1,.827,2.852v9h4.463v-9a3.921,3.921,0,0,1,.823-2.852,3.152,3.152,0,0,1,4.647,0,3.887,3.887,0,0,1,.823,2.852v9h4.457v-8.825a8.288,8.288,0,0,0-1.674-5.494A7.569,7.569,0,0,0,80.6,98.11" transform="translate(-62.152 -90.703)"/>
        <path id="path15" class="cls-2" d="M783.279,98.11l-.089,0-.083,0a7.715,7.715,0,0,0-5.3,2.084,7.694,7.694,0,0,0-5.288-2.084l-.091,0-.088,0a7.573,7.573,0,0,0-5.837,2.688,8.265,8.265,0,0,0-1.676,5.494v8.825h4.456v-9a3.9,3.9,0,0,1,.824-2.852,3.148,3.148,0,0,1,4.643,0,3.888,3.888,0,0,1,.825,2.852v9h4.467v-9a3.888,3.888,0,0,1,.823-2.852,3.147,3.147,0,0,1,4.643,0,3.906,3.906,0,0,1,.826,2.852v9H790.8v-8.825a8.286,8.286,0,0,0-1.676-5.494,7.583,7.583,0,0,0-5.841-2.688" transform="translate(-658.755 -90.703)"/>
        <path id="path17" class="cls-2" d="M956.1,104.65a3.721,3.721,0,0,1,3.705-2.926,3.4,3.4,0,0,1,3.415,2.926Zm11.871,2a8.243,8.243,0,0,0-8.166-8.53c-5.132,0-8.4,4.069-8.4,8.686,0,5.229,3.882,8.66,9.037,8.66a9.541,9.541,0,0,0,7.1-2.986l-2.641-2.535a6.189,6.189,0,0,1-4.35,1.919,4.485,4.485,0,0,1-4.666-3.949h11.969a5.967,5.967,0,0,0,.119-1.266" transform="translate(-817.168 -90.714)"/>
      </g>
    </g>
  </g>
</svg>
