<svg xmlns="http://www.w3.org/2000/svg" viewBox="6049 -3883 222.329 66.698">
  <defs>
    <style>
      .cls-1 {
        fill: #054aae;
      }

      .cls-2 {
        fill: #fff;
      }
    </style>
  </defs>
  <g id="skyGo" transform="translate(4953 -4367)">
    <rect id="Rechteck_35" data-name="Rechteck 35" class="cls-1" width="222.328" height="66.699" rx="10" transform="translate(1096 484)"/>
    <g id="Logo_SkyGo_2014" transform="translate(1186.482 325.474)">
      <g id="g3286" transform="translate(-20.42 177.979)">
        <path id="path3139" class="cls-2" d="M7.165,358.048a.883.883,0,0,1-.88.588h-2.7A.609.609,0,0,1,3,358.048a1.16,1.16,0,0,1,.146-.588l3.052-6.2L-.521,341.21l-3.462,3.7,4.43,6.611a1.157,1.157,0,0,1,.322.705.659.659,0,0,1-.7.558H-2.986c-.44,0-.7-.294-1-.706l-5.134-7.435,5.69-6.142a1.762,1.762,0,0,1,1.5-.706H1.356a1.509,1.509,0,0,1,1.436.823l5.369,8.551,3.813-8.669a.967.967,0,0,1,1-.706H15.7a.616.616,0,0,1,.616.587,1.211,1.211,0,0,1-.177.589Zm-16.546-6.789a1.479,1.479,0,0,1-1.525,1.529h-2.318a.661.661,0,0,1-.586-.706V332.835c0-1.177.586-1.558,1.614-1.558h2.083a.686.686,0,0,1,.733.706Zm-9.827-7.346c2.787.646,4.107,2.087,4.107,4.467,0,2.439-1.672,4.407-5.662,4.407h-7.569c-.381,0-.557-.264-.557-.706v-1.44a1.38,1.38,0,0,1,1.525-1.5h6.836c.763,0,1.056-.353,1.056-.617,0-.412-.293-.676-1.2-.881l-4.343-.941c-2.7-.588-4.136-2.057-4.136-4.32,0-2.586,1.789-4.584,5.222-4.584h7.6a.663.663,0,0,1,.7.706v1.44a1.41,1.41,0,0,1-1.555,1.528h-6.57c-.88,0-1.145.293-1.145.559,0,.44.265.616,1.262.851l4.43,1.029" transform="translate(29.154 -331.277)"/>
        <path id="path3141" class="cls-2" d="M305.029,385.487V377.2a.461.461,0,0,0-.382-.5,13.448,13.448,0,0,0-2.641-.236c-3.549,0-4.664.648-4.664,5,0,3.086.645,4.319,4.489,4.319A15.4,15.4,0,0,0,305.029,385.487Zm-8.8,9.11c-.646-.118-1.085-.411-1.056-1.175l.059-1.323c0-.2.087-.322.263-.322a39.533,39.533,0,0,0,5.487.382c3.49,0,4.048-.941,4.048-3.7a27.288,27.288,0,0,1-3.433.176c-3.932,0-7.569-1.027-7.569-7.228,0-4.732,1.173-7.788,7.745-7.788a26.807,26.807,0,0,1,5.4.53c.762.146,1.115.5,1.115,1.263v12.107c0,5.554-1.7,7.375-7.188,7.375a32.376,32.376,0,0,1-4.869-.293" transform="translate(-244.237 -367.093)"/>
        <path id="path3143" class="cls-2" d="M414.583,381.05c0-3.232-.85-4.613-4.341-4.613s-4.342,1.381-4.342,4.613c0,4.115,1.173,5.025,4.342,5.025S414.583,385.165,414.583,381.05Zm-12.028,0c0-5.73,3.433-7.435,7.687-7.435s7.686,1.7,7.686,7.435c0,4.584-1.525,7.9-7.686,7.9s-7.687-3.32-7.687-7.9" transform="translate(-336.044 -367.093)"/>
      </g>
    </g>
  </g>
</svg>
