<svg xmlns="http://www.w3.org/2000/svg" viewBox="5098 -3883 222.329 66.698">
  <defs>
    <style>
      .cls-1 {
        fill: #bf0000;
      }

      .cls-2 {
        fill: #fff;
      }
    </style>
  </defs>
  <g id="rakuten" transform="translate(3768 -4289)">
    <rect id="Rechteck_21" data-name="Rechteck 21" class="cls-1" width="222.328" height="66.699" rx="10" transform="translate(1330 406)"/>
    <g id="Rakuten_logo_2" transform="translate(1384.614 429)">
      <g id="Gruppe_20" data-name="Gruppe 20" transform="translate(-12)">
        <g id="Gruppe_19" data-name="Gruppe 19">
          <g id="Gruppe_18" data-name="Gruppe 18" transform="translate(0 0.203)">
            <path id="Pfad_26" data-name="Pfad 26" class="cls-2" d="M21.348,11.157A10.674,10.674,0,1,1,10.673.481,10.672,10.672,0,0,1,21.348,11.157Z" transform="translate(0 -0.481)"/>
            <path id="Pfad_27" data-name="Pfad 27" class="cls-1" d="M18.96,23.656V20.1H20.5l2.669,3.558H25.9l-3.225-4.293a3.954,3.954,0,0,0-2.291-7.178h-3.6V23.657h2.18Zm0-9.293h1.422a1.778,1.778,0,1,1,0,3.556H18.96Z" transform="translate(-9.698 -7.245)"/>
          </g>
          <path id="Pfad_28" data-name="Pfad 28" class="cls-2" d="M208.44,17.943a1.655,1.655,0,0,1-3.174-.815V10.493h5.379V6.843h-5.379V3.01h-3.651V6.843h-2.592v3.651h2.592v6.635A5.315,5.315,0,0,0,212,18.9Z" transform="translate(-104.87 -1.74)"/>
          <path id="Pfad_29" data-name="Pfad 29" class="cls-2" d="M99.764,11.574v.682a6.588,6.588,0,0,0-3.556-1.06c-3.971,0-7.2,3.621-7.2,8.069s3.23,8.068,7.2,8.068a6.576,6.576,0,0,0,3.556-1.06v.682h3.651V11.574ZM96.208,23.682c-1.958,0-3.552-1.982-3.552-4.417s1.594-4.416,3.552-4.416,3.556,1.982,3.556,4.416S98.169,23.682,96.208,23.682Z" transform="translate(-41.288 -6.47)"/>
          <path id="Pfad_30" data-name="Pfad 30" class="cls-2" d="M173.932,12.091v9.035a3.073,3.073,0,0,1-6.147,0V12.091h-3.651v9.035a6.715,6.715,0,0,0,9.8,5.974v.372h3.651V12.091Z" transform="translate(-84.706 -6.988)"/>
          <path id="Pfad_31" data-name="Pfad 31" class="cls-2" d="M274.863,11.2a6.683,6.683,0,0,0-3.072.75v-.373H268.14V26.955h3.651V17.921a3.073,3.073,0,1,1,6.145,0v9.033h3.651V17.921A6.733,6.733,0,0,0,274.863,11.2Z" transform="translate(-144.814 -6.47)"/>
          <path id="Pfad_32" data-name="Pfad 32" class="cls-2" d="M244.949,19.247c0-4.455-3.233-8.081-7.2-8.081-4.04,0-7.205,3.55-7.205,8.081a8.108,8.108,0,0,0,7.711,8.082,7.528,7.528,0,0,0,6.344-3.443l-3.179-1.836a3.764,3.764,0,0,1-6.828-1.728l10.292,0A9.582,9.582,0,0,0,244.949,19.247Zm-4.128-2.189h-6.156C235.348,14.067,240.144,13.444,240.821,17.058Z" transform="translate(-123.084 -6.453)"/>
          <path id="Pfad_33" data-name="Pfad 33" class="cls-2" d="M135.5,12.313,142.713,5.1H137.55l-5.567,5.568V0h-3.651V20.484h3.651V13.955l6.527,6.529h5.161Z" transform="translate(-64.015)"/>
          <path id="Pfad_34" data-name="Pfad 34" class="cls-2" d="M59.288,22.223V16.264H61.87l4.471,5.959h4.57l-5.4-7.19A6.623,6.623,0,0,0,61.671,3.01H55.637V22.224h3.651Zm0-15.565h2.383a2.978,2.978,0,1,1,0,5.956H59.288Z" transform="translate(-22.003 -1.74)"/>
        </g>
      </g>
    </g>
  </g>
</svg>
