<svg xmlns="http://www.w3.org/2000/svg" viewBox="5732 -3883 222.329 66.698">
  <defs>
    <style>
      .cls-1, .cls-4 {
        fill: #fff;
      }

      .cls-2, .cls-4 {
        fill-rule: evenodd;
      }

      .cls-3 {
        fill: #7dae2a;
      }
    </style>
  </defs>
  <g id="amazonPrimeInstant" transform="translate(4953 -4367)">
    <rect id="Rechteck_30" data-name="Rechteck 30" class="cls-1" width="222.328" height="66.699" rx="10" transform="translate(779 484)"/>
    <g id="Amazon_Prime_Instant_Video" transform="translate(811 500.189)">
      <g id="g1967" transform="translate(0 -0.001)">
        <path id="path8" class="cls-2" d="M-116.34,1945.336c-5.834,4.473-14.291,6.86-21.572,6.86a38.2,38.2,0,0,1-26.354-10.46c-.546-.513-.057-1.214.6-.814A51.472,51.472,0,0,0-137.3,1948.2a50.687,50.687,0,0,0,20.113-4.278c.988-.436,1.814.673.848,1.418" transform="translate(178.627 -1918.169)"/>
        <path id="path10" class="cls-2" d="M481.567,1927.435c-.743-.991-4.93-.469-6.809-.236-.573.073-.66-.446-.144-.818,3.335-2.441,8.806-1.736,9.444-.918s-.166,6.528-3.3,9.251c-.481.418-.94.2-.725-.359.7-1.827,2.281-5.923,1.534-6.919" transform="translate(-416.854 -1903.154)"/>
        <path id="path12" class="cls-2" d="M475.364,1654.357v-2.373a.574.574,0,0,1,.577-.6h10.214a.58.58,0,0,1,.59.6v2.032a3.4,3.4,0,0,1-.769,1.491l-5.293,7.86a10.913,10.913,0,0,1,5.826,1.3,1.088,1.088,0,0,1,.542.923v2.532c0,.346-.367.75-.752.541a11.363,11.363,0,0,0-10.791.018c-.354.2-.725-.2-.725-.546v-2.4a2.963,2.963,0,0,1,.376-1.632l6.132-9.147h-5.336a.576.576,0,0,1-.59-.6" transform="translate(-417.329 -1648.365)"/>
        <path id="path14" class="cls-2" d="M-116.739,1664.973h-3.107a.6.6,0,0,1-.555-.55v-16.588a.594.594,0,0,1,.6-.6h2.9a.6.6,0,0,1,.564.554v2.168h.057a4.118,4.118,0,0,1,4.091-3.073c1.945,0,3.16.977,4.034,3.073a4.412,4.412,0,0,1,4.292-3.073,4.356,4.356,0,0,1,3.6,1.814c.983,1.4.782,3.423.782,5.2l0,10.469a.6.6,0,0,1-.6.6h-3.1a.6.6,0,0,1-.559-.6v-8.792a21.594,21.594,0,0,0-.087-3.109,1.629,1.629,0,0,0-1.827-1.427,2.068,2.068,0,0,0-1.857,1.359,10.429,10.429,0,0,0-.288,3.177v8.792a.6.6,0,0,1-.6.6h-3.1a.6.6,0,0,1-.559-.6l0-8.792c0-1.85.293-4.573-1.914-4.573-2.233,0-2.146,2.655-2.146,4.573v8.792a.6.6,0,0,1-.6.6" transform="translate(137.516 -1644.175)"/>
        <path id="path18" class="cls-2" d="M1013.168,1664.973h-3.094a.6.6,0,0,1-.559-.6l0-16.593a.6.6,0,0,1,.6-.541h2.88a.6.6,0,0,1,.555.464v2.537h.057c.87-2.268,2.089-3.35,4.235-3.35a4.032,4.032,0,0,1,3.627,1.955c.813,1.327.813,3.56.813,5.164v10.442a.6.6,0,0,1-.6.523h-3.116a.6.6,0,0,1-.551-.523v-9.01c0-1.814.2-4.469-1.945-4.469a2.036,2.036,0,0,0-1.8,1.327,7.609,7.609,0,0,0-.494,3.141v8.933a.608.608,0,0,1-.608.6" transform="translate(-915.815 -1644.175)"/>
        <path id="path28" class="cls-2" d="M237.288,1654.86a6.545,6.545,0,0,1-.581,3.428,2.521,2.521,0,0,1-2.15,1.468c-1.193,0-1.892-.946-1.892-2.341,0-2.755,2.373-3.255,4.624-3.255v.7m3.134,7.878a.629.629,0,0,1-.734.078,7.81,7.81,0,0,1-1.783-2.155,6.05,6.05,0,0,1-5.122,2.35c-2.618,0-4.65-1.677-4.65-5.037a5.493,5.493,0,0,1,3.313-5.282,20.789,20.789,0,0,1,5.843-1.123v-.418a4.268,4.268,0,0,0-.38-2.341,2.038,2.038,0,0,0-1.744-.841,2.379,2.379,0,0,0-2.5,1.941.665.665,0,0,1-.542.591l-3.011-.336a.567.567,0,0,1-.463-.677c.691-3.8,3.995-4.946,6.949-4.946a6.868,6.868,0,0,1,4.681,1.609c1.512,1.468,1.368,3.427,1.368,5.559v5.037a4.511,4.511,0,0,0,1.171,3,.629.629,0,0,1-.013.859c-.634.55-1.761,1.573-2.382,2.146l0-.009" transform="translate(-187.396 -1641.986)"/>
        <path id="path30" class="cls-2" d="M-363.763,1654.86a6.545,6.545,0,0,1-.581,3.428,2.516,2.516,0,0,1-2.15,1.468c-1.193,0-1.888-.946-1.888-2.341,0-2.755,2.373-3.255,4.62-3.255v.7m3.134,7.878a.629.629,0,0,1-.734.078,7.89,7.89,0,0,1-1.783-2.155,6.045,6.045,0,0,1-5.122,2.35c-2.613,0-4.65-1.677-4.65-5.037a5.5,5.5,0,0,1,3.313-5.282,20.789,20.789,0,0,1,5.843-1.123v-.418a4.306,4.306,0,0,0-.376-2.341,2.049,2.049,0,0,0-1.744-.841,2.384,2.384,0,0,0-2.5,1.941.665.665,0,0,1-.538.591l-3.016-.336a.57.57,0,0,1-.463-.677c.695-3.8,3.995-4.946,6.949-4.946a6.868,6.868,0,0,1,4.681,1.609c1.512,1.468,1.368,3.427,1.368,5.559v5.037a4.511,4.511,0,0,0,1.171,3,.625.625,0,0,1-.009.859c-.634.55-1.761,1.573-2.382,2.146l-.009-.009" transform="translate(372.919 -1641.986)"/>
        <ellipse id="path6903" class="cls-3" cx="11.277" cy="11.249" rx="11.277" ry="11.249" transform="translate(69.774 0)"/>
        <path id="path7472" class="cls-4" d="M772.206,1710.871v-9.191l9.3,4.623Z" transform="translate(-694.594 -1695.253)"/>
        <path id="text3364" d="M1123.3,1960.8v3.209l-.022.086a1.918,1.918,0,0,0-1.7-1.09c-1.517,0-2.379,1.4-2.379,3.2,0,1.531.567,3.577,2.51,3.577a1.691,1.691,0,0,0,1.626-1.066h.022v.882h.906v-8.8h-.96Zm-45.749.23a.618.618,0,1,0,.638.618A.628.628,0,0,0,1077.548,1961.033Zm40.109,0a.618.618,0,1,0,.638.618A.628.628,0,0,0,1117.658,1961.033Zm-26.6.371v1.788h-.775v.894h.775v4.226c0,.772.208,1.372,1.157,1.372.1,0,.371-.049.72-.086v-.845h-.338c-.2,0-.578,0-.578-.5v-4.165h.917v-.894h-.917V1961.4Zm14.99,0v1.788h-.775v.894h.775v4.226c0,.772.207,1.372,1.156,1.372.1,0,.371-.049.72-.086v-.845h-.338c-.2,0-.578,0-.578-.5v-4.165h.917v-.894h-.917V1961.4Zm-23.963,1.6a2.051,2.051,0,0,0-1.724,1.09h-.022v-.906h-.906v6.406h.96v-3.491c0-1.74.96-2.132,1.506-2.132.938,0,1.222.563,1.222,1.678v3.944h.96v-4.36C1084.082,1963.413,1082.969,1963.008,1082.085,1963.008Zm5.347,0a1.979,1.979,0,0,0-2.161,2.046,1.535,1.535,0,0,0,1.321,1.556l1.113.306c.818.233,1.135.4,1.135.918,0,.71-.622,1.017-1.309,1.017-1.353,0-1.484-.808-1.517-1.311h-.927c.033.771.2,2.242,2.455,2.242a2.078,2.078,0,0,0,2.259-2.119c0-.87-.414-1.36-1.6-1.69l-.96-.27c-.742-.208-1.036-.331-1.036-.857,0-.8.84-.906,1.135-.906,1.211,0,1.342.674,1.353,1.078h.927A1.985,1.985,0,0,0,1087.432,1963.008Zm8.7,0c-1.407,0-2.313.6-2.357,2.132h.884a1.2,1.2,0,0,1,1.309-1.237c.906,0,1.342.368,1.342,1.042,0,.637-.273.735-.5.759l-1.582.221a1.865,1.865,0,0,0-1.735,2.009,1.738,1.738,0,0,0,1.789,1.85,2.5,2.5,0,0,0,2.062-1.041c.033.49.164.98,1.015.98a1.6,1.6,0,0,0,.524-.123v-.784a1.633,1.633,0,0,1-.316.049c-.2,0-.316-.11-.316-.38V1964.8C1098.246,1963.156,1096.588,1963.008,1096.13,1963.008Zm6.34,0a2.05,2.05,0,0,0-1.724,1.09h-.022v-.906h-.906v6.406h.96v-3.491c0-1.74.96-2.132,1.506-2.132.938,0,1.222.563,1.222,1.678v3.944h.96v-4.36C1104.466,1963.413,1103.353,1963.008,1102.469,1963.008Zm25.532,0c-1.888,0-2.739,1.58-2.739,3.565,0,1.85.949,3.209,2.553,3.209a2.263,2.263,0,0,0,1.549-.441,2.836,2.836,0,0,0,1.015-1.751h-.96a1.5,1.5,0,0,1-1.473,1.262c-1.1,0-1.658-.772-1.658-2.107h4.168C1130.456,1964.479,1129.649,1963.008,1128,1963.008Zm5.87,0c-1.822,0-2.651,1.727-2.651,3.381s.829,3.381,2.651,3.381,2.651-1.727,2.651-3.381S1135.694,1963.008,1133.871,1963.008Zm-56.784.184v6.406h.96v-6.406Zm34.051,0,2.084,6.406h1.026l2.171-6.406h-1.048l-1.615,5.219h-.022l-1.484-5.219Zm6.038,0v6.406h.96v-6.406Zm16.7.747c1.375,0,1.659,1.592,1.659,2.45s-.284,2.45-1.659,2.45-1.658-1.592-1.658-2.45S1132.5,1963.939,1133.871,1963.939Zm-12.123.037c1.386,0,1.539,1.678,1.539,2.719,0,1.7-.949,2.156-1.56,2.156-1.048,0-1.539-1.066-1.539-2.475,0-.82.076-2.4,1.56-2.4Zm6.121,0c1.167,0,1.538.918,1.593,1.911h-3.175A1.8,1.8,0,0,1,1127.87,1963.976Zm-30.584,2.352v1.053a1.688,1.688,0,0,1-1.767,1.506c-.72,0-1.037-.417-1.037-1.115,0-.808.753-.968,1.222-1.041,1.189-.172,1.43-.269,1.582-.4Z" transform="translate(-978.648 -1936.814)"/>
        <path id="text4240" d="M634.929,1975.829q-1.29,0-1.683.05c-.107.014-.167.052-.178.115l-.015.071q-.354,1.738-.795,3.315-.156.558-.488,1.678t-.482,1.672c-.027.1.006.146.1.146q.3,0,.884.015t.882.02a.134.134,0,0,0,.134-.116q.063-.226.147-.683t.149-.688a.241.241,0,0,1,.26-.186q.194,0,.575.025t.581.02a2.951,2.951,0,0,0,2.042-.8,4.077,4.077,0,0,0,1.166-1.969,2.2,2.2,0,0,0-.182-1.919,1.952,1.952,0,0,0-1.644-.749Q635.691,1975.829,634.929,1975.829Zm9.382.136a1.278,1.278,0,0,0-.729.231,1.133,1.133,0,0,0-.48.643.646.646,0,0,0,.109.653.8.8,0,0,0,.612.221,1.116,1.116,0,0,0,1.195-.874.639.639,0,0,0-.118-.638A.748.748,0,0,0,644.311,1975.965Zm-8.834,1.462q1.1,0,.774,1.17a1.32,1.32,0,0,1-1.36,1.1q-.873,0-.845-.1.043-.155.113-.457t.119-.462a9.776,9.776,0,0,1,.358-1.16Q634.7,1977.426,635.477,1977.426Zm21,.346a2.96,2.96,0,0,0-1.989.764,3.776,3.776,0,0,0-1.179,1.893,2.1,2.1,0,0,0,.2,1.894,1.931,1.931,0,0,0,1.668.7,3.018,3.018,0,0,0,2.022-.658.349.349,0,0,0,.1-.115,1.576,1.576,0,0,0-.078-.588q-.109-.462-.2-.512l-.436.241a2.186,2.186,0,0,1-.936.241,1.18,1.18,0,0,1-.6-.141.5.5,0,0,1-.273-.5q1.16-.091,1.751-.156.979-.1,1.035-.11.335-.07.477-.578a1.979,1.979,0,0,0-.183-1.672A1.534,1.534,0,0,0,656.476,1977.773Zm-7.575.116a2.135,2.135,0,0,0-.862.186,6.646,6.646,0,0,0-.824.482.707.707,0,0,1-.131.071q-.034,0,.058-.347t0-.352a1.634,1.634,0,0,0-.4.07q-.361.1-.413.105-.071.01-.444.045a1.888,1.888,0,0,0-.424.075.164.164,0,0,0-.1.116.648.648,0,0,0-.016.09,17.757,17.757,0,0,1-.4,1.853q-.112.4-.342,1.205t-.34,1.2a.323.323,0,0,0-.023.151c.012.017.055.028.131.035q.38.03.685.03.47,0,.694-.02a.2.2,0,0,0,.234-.2q.126-.452.375-1.361t.377-1.366a.738.738,0,0,1,.381-.392,1.059,1.059,0,0,1,.509-.171q.529,0,.328.718-.053.19-.149.567t-.147.563q-.067.241-.214.713t-.212.708q-.057.206.078.206h1.47q.141,0,.187-.166.067-.241.186-.718t.186-.718q.286-1.025.365-1.235a.97.97,0,0,1,.37-.437.919.919,0,0,1,.512-.2q.519,0,.381.6-.085.372-.33,1.251-.065.231-.208.693t-.207.688q-.06.216.077.246a4.886,4.886,0,0,0,.729.03q.572,0,.723-.02a.237.237,0,0,0,.2-.2q.088-.316.251-.949t.252-.954q.074-.266.238-.8t.239-.8a.934.934,0,0,0-.18-.99,1.33,1.33,0,0,0-.957-.306,2.24,2.24,0,0,0-.947.246,3.07,3.07,0,0,0-.878.608.747.747,0,0,0-.328-.648,1.248,1.248,0,0,0-.738-.206Zm-8.39.03q-.024,0-.834.156-.537.08-.812.11a.141.141,0,0,0-.1.1.388.388,0,0,0-.011.076,7.715,7.715,0,0,1-.334,1.944q-.112.4-.341,1.205t-.34,1.2q-.041.146.114.166a6.816,6.816,0,0,0,.729.03q.48,0,.719-.02a.2.2,0,0,0,.2-.135q.039-.14.1-.427t.1-.437q.06-.216.173-.653t.179-.658a.95.95,0,0,1,.293-.527,1.019,1.019,0,0,1,.585-.131q.087,0,.258.015t.269.01a.248.248,0,0,0,.263-.2c.018-.063.051-.194.1-.392q.062-.241.1-.387.04-.126.149-.412.1-.266.144-.412.034-.12-.238-.121a2.239,2.239,0,0,0-.972.266,2.283,2.283,0,0,0-.477.259c-.035-.012-.032-.116.008-.314S640.569,1977.919,640.51,1977.919Zm2.352.176q-.131,0-.159.1c0,.017-.011.052-.02.106a20.448,20.448,0,0,1-.527,2.271q-.1.351-.308,1.05t-.3,1.04a.621.621,0,0,0-.032.151c.008.03.045.052.113.065a5.247,5.247,0,0,0,.739.03,5.613,5.613,0,0,0,.751-.03.173.173,0,0,0,.156-.125q.1-.361.288-1.085t.291-1.095q.361-1.291.741-2.271c.021-.05.033-.082.036-.1.019-.067-.011-.1-.088-.1q-.141,0-.429.025t-.429.025a4.114,4.114,0,0,1-.414-.03A3.865,3.865,0,0,0,642.862,1978.094Zm13.065.964a.488.488,0,0,1,.443.236.658.658,0,0,1,.06.547c-.01.036-.071.063-.182.08a8.94,8.94,0,0,1-1.148.116q-.136,0-.1-.136a1.269,1.269,0,0,1,.346-.577A.824.824,0,0,1,655.928,1979.059Z" transform="translate(-563.22 -1950.821)"/>
      </g>
    </g>
  </g>
</svg>
