<svg xmlns="http://www.w3.org/2000/svg" xmlns:xlink="http://www.w3.org/1999/xlink" viewBox="5009.068 943.068 25.864 25.863">
  <defs>
    <style>
      .cls-1, .cls-2, .cls-5 {
        fill: none;
      }

      .cls-1 {
        stroke: #fff;
        stroke-width: 3px;
      }

      .cls-3 {
        fill: url(#linear-gradient);
      }

      .cls-4, .cls-6 {
        stroke: none;
      }

      .cls-6 {
        fill: #00dcff;
      }
    </style>
    <linearGradient id="linear-gradient" x1="-0.087" y1="-0.414" x2="0.792" y2="1.361" gradientUnits="objectBoundingBox">
      <stop offset="0" stop-color="#00bcd9"/>
      <stop offset="1" stop-color="#00c8e8"/>
    </linearGradient>
  </defs>
  <g id="Gruppe_33" data-name="Gruppe 33" transform="translate(3658.531 892.53)">
    <g id="Ellipse_8" data-name="Ellipse 8" class="cls-1" transform="translate(1350.538 50.538)">
      <circle class="cls-4" cx="12.932" cy="12.932" r="12.932"/>
      <circle class="cls-5" cx="12.932" cy="12.932" r="11.432"/>
    </g>
    <g id="Schnittmenge_4" data-name="Schnittmenge 4" class="cls-2" transform="translate(1352.041 50.538)">
      <path class="cls-4" d="M.007,6.944,0,6.876a12.933,12.933,0,1,1,21.632,14C14.541,8.166.007,6.944.007,6.944Z"/>
      <path class="cls-6" d="M 21.16001892089844 14.9405403137207 C 21.29322814941406 14.28702735900879 21.36098098754883 13.61517143249512 21.36098098754883 12.93176078796387 C 21.36098098754883 7.455370903015137 16.90562057495117 3.000000953674316 11.4292516708374 3.000000953674316 C 9.221949577331543 3.000000953674316 7.130091667175293 3.726050615310669 5.435339450836182 5.008718490600586 C 6.612944602966309 5.348865509033203 7.930058002471924 5.794722557067871 9.320191383361816 6.377370834350586 C 14.06079959869385 8.364304542541504 18.07817459106445 11.2804536819458 21.16001892089844 14.9405403137207 M 21.63196182250977 20.87850189208984 C 14.54118156433105 8.165680885314941 0.007201447617262602 6.944470882415771 0.007201447617262602 6.944470882415771 C 0.007201447617262602 6.944470882415771 0.004711447283625603 6.920990943908691 1.447448767066817e-06 6.876451015472412 C 2.171661376953125 2.785810947418213 6.475151538848877 9.460449064135901e-07 11.4292516708374 9.460449064135901e-07 C 18.5713005065918 9.460449064135901e-07 24.36098098754883 5.789710998535156 24.36098098754883 12.93176078796387 C 24.36098098754883 15.92776107788086 23.34206199645996 18.68598175048828 21.63196182250977 20.87850189208984 Z"/>
    </g>
    <path id="Schnittmenge_7" data-name="Schnittmenge 7" class="cls-3" d="M.012,1.223h0l0-.035,0-.032A12.919,12.919,0,0,1,.693,0,27.861,27.861,0,0,1,21.613,15.059l.037.074-.018.023C14.615,2.575.307,1.249.012,1.223Z" transform="translate(1352.041 56.259)"/>
  </g>
</svg>
